<?xml version="1.0" encoding="UTF-8" standalone="no"?>
<svg
   xmlns:dc="http://purl.org/dc/elements/1.1/"
   xmlns:cc="http://creativecommons.org/ns#"
   xmlns:rdf="http://www.w3.org/1999/02/22-rdf-syntax-ns#"
   xmlns:svg="http://www.w3.org/2000/svg"
   xmlns="http://www.w3.org/2000/svg"
   xmlns:sodipodi="http://sodipodi.sourceforge.net/DTD/sodipodi-0.dtd"
   xmlns:inkscape="http://www.inkscape.org/namespaces/inkscape"
   class="w-36 lg:w-28 xl:w-52"
   aria-hidden="true"
   viewBox="0 0 1000 205.35849"
   version="1.1"
   id="svg879"
   sodipodi:docname="A.svg"
   width="1000"
   height="205.35849"
   style="fill:none"
   inkscape:version="0.92.4 (5da689c313, 2019-01-14)">
  <metadata
     id="metadata885">
    <rdf:RDF>
      <cc:Work
         rdf:about="">
        <dc:format>image/svg+xml</dc:format>
        <dc:type
           rdf:resource="http://purl.org/dc/dcmitype/StillImage" />
        <dc:title></dc:title>
      </cc:Work>
    </rdf:RDF>
  </metadata>
  <defs
     id="defs883" />
  <sodipodi:namedview
     pagecolor="#ffffff"
     bordercolor="#111111"
     borderopacity="1"
     objecttolerance="10"
     gridtolerance="10"
     guidetolerance="10"
     inkscape:pageopacity="0"
     inkscape:pageshadow="2"
     inkscape:window-width="1920"
     inkscape:window-height="1017"
     id="namedview881"
     showgrid="false"
     fit-margin-top="0"
     fit-margin-left="0"
     fit-margin-right="0"
     fit-margin-bottom="0"
     inkscape:zoom="1.1040205"
     inkscape:cx="481.24071"
     inkscape:cy="77.536653"
     inkscape:window-x="1912"
     inkscape:window-y="-8"
     inkscape:window-maximized="1"
     inkscape:current-layer="svg879" />
  <path
     d="m 922.40094,22.69811 c -44.45754,0 -77.59905,34.51415 -77.59905,80.63208 0,45.29245 33.14151,79.78773 77.59905,79.78773 44.73585,0 77.59906,-34.50943 77.59906,-79.78773 0,-46.39151 -33.41509,-80.63208 -77.59906,-80.63208 z m 0,144.97642 c -35.62264,0 -61.0283,-27.06604 -61.0283,-64.33963 0,-38.938674 25.40566,-65.44811 61.0283,-65.44811 35.34906,0 61.02831,26.509436 61.02831,65.4434 0,37.2783 -25.67925,64.34434 -61.02831,64.34434 z M 814.15566,25.74057 h -16.01887 v 153.53301 h 16.01887 z M 763.34434,36.23585 751.1934,25.74057 695.96226,89.528301 h -4.41509 L 636.03774,25.74057 624.16981,36.23585 680.5,100.29717 v 4.68868 l -56.33019,63.52358 11.86793,10.76415 55.50943,-63.24056 h 4.41509 l 54.40566,63.24056 12.14623,-10.21698 -55.50943,-64.07075 v -4.68868 l 56.33962,-64.0566 z M 533.58962,25.74057 474.50472,179.27358 h 16.56603 l 13.87736,-36.40566 10.29246,-8.33019 h 55.08018 l 8.86321,7.4717 14.03774,37.23585 h 17.40094 L 551.80189,25.71226 Z M 515.58491,115.02358 540.25,50.3066 h 4.43396 l 24.64623,65.38208 -3.38208,3.37736 H 519.84906 Z M 370.39623,160.2217 H 365.9717 L 314.33962,25.74057 h -28.16509 v 153.53301 h 16.00943 V 50.31132 h 4.42453 l 49.97642,128.96226 h 23.19811 L 428.66038,50.31132 h 4.41509 v 128.96226 h 16.01887 V 25.74057 H 420.92925 Z M 60.339623,0.00472 50.674528,9.66981 81.599057,40.32547 V 66.283018 L 78.424528,69.179245 34.650943,25.68868 25.264151,35.07547 68.759434,78.844339 66.136792,81.745282 H 40.45283 L 9.5283019,50.81132 0,60.33962 34.929245,95.273584 H 95.141509 V 34.5283 L 60.339623,0 Z m 84.330187,0 9.66981,9.66509 -30.92453,30.65566 v 25.957548 l 3.17453,2.896227 43.76887,-43.490565 9.38679,9.38679 -43.49056,43.768869 2.62264,2.900943 h 25.67924 l 30.92453,-30.933962 9.5283,9.5283 -34.92924,34.933964 H 109.87736 V 34.5283 L 144.66981,0 Z m -84.330187,205.34905 -9.665095,-9.66509 30.924529,-30.65566 v -25.95755 l -3.174529,-2.89623 -43.773585,43.49057 -9.386792,-9.38679 43.495283,-43.76887 -2.622642,-2.90094 H 40.45283 L 9.5283019,154.54717 0,145.01887 34.929245,110.0849 h 60.212264 v 60.74529 l -34.797169,34.5283 z m 84.330187,0 9.66981,-9.66509 -30.92453,-30.65566 v -25.95755 l 3.17453,-2.89623 43.76887,43.49057 9.38679,-9.38679 -43.49056,-43.76887 2.62264,-2.90094 h 25.67924 l 30.92453,30.93396 9.5283,-9.5283 -34.92924,-34.93397 h -60.20283 v 60.74529 l 34.79717,34.5283 z"
     id="path877"
     inkscape:connector-curvature="0"
     style="fill:currentColor;stroke-width:4.71698093" />
</svg>
