<svg width="105" height="45" viewBox="0 0 105 45" fill="none" xmlns="http://www.w3.org/2000/svg">
<g clip-path="url(#clip0_1548:1971)">
<path d="M15.136 2.33239C16.0958 2.33239 42.072 2.28434 44.1861 2.28434C46.3001 2.28434 46.1502 1.43251 46.1502 1.02102C46.1502 0.609542 45.7082 0 44.7145 0C43.7208 0 3.79352 0.0131385 2.23065 0.0131385C0.667773 0.0131385 0 0.308741 0 1.16589C0 2.05917 0.417827 2.34438 2.54978 2.34438C4.8803 2.34438 8.79614 2.32333 9.53866 2.32333C10.2812 2.32333 11.016 2.35422 11.016 2.89599C11.016 3.43776 10.8061 3.84696 10.0738 5.24335C9.34142 6.63973 0.761712 21.9846 0.761712 24.3234C0.761712 25.2356 1.38318 25.5284 2.00032 25.5284C2.53917 25.5284 2.96317 25.0536 3.57394 23.6368C5.66803 18.7791 12.3504 6.25291 13.1191 4.78702C13.8877 3.32113 14.1762 2.33239 15.136 2.33239Z" fill="#FF7442"/>
<path d="M103.765 15.1806C102.973 15.3716 100.589 18.065 96.5395 18.065C96.1872 18.0654 95.8351 18.0458 95.4849 18.0064C95.9728 16.9008 96.2333 15.708 96.2509 14.4992C96.2509 9.62905 93.0523 9.39949 91.9453 9.39949C90.8384 9.39949 88.25 10.3739 88.25 14.205C88.25 16.5504 89.8149 18.4452 92.1644 19.4589C90.684 21.4811 88.4835 23.1191 86.1765 23.1191C83.8221 23.1191 82.8874 20.8948 82.8874 19.3783C82.8874 14.5164 86.7578 13.1642 86.8946 12.1124C87.0151 11.1862 86.4278 10.8299 85.7438 10.8299C84.6128 10.8299 80.935 14.0278 80.4455 18.7026C78.7573 19.6728 75.2375 21.7021 71.4595 23.922C73.0863 20.7177 74.45 18.04 74.947 17.112C76.3028 14.5798 78.0492 11.6837 78.1489 10.8066C78.1792 10.6578 78.1748 10.504 78.1359 10.3572C78.097 10.2104 78.0247 10.0747 77.9247 9.96061C77.8247 9.84652 77.6996 9.75722 77.5594 9.69969C77.4191 9.64217 77.2674 9.61799 77.1163 9.62905C75.9513 9.62905 75.5046 11.2923 75.0601 11.2923C74.6156 11.2923 72.8378 9.36068 69.9749 9.36068C67.2931 9.36068 62.8676 11.4505 60.2547 17.6673C58.1783 19.4937 53.7673 23.1268 51.5328 23.1268C50.9748 23.1268 50.6296 22.9143 50.6296 22.0836C50.6296 20.5827 54.7593 15.3604 54.7593 12.364C54.7593 10.411 53.3697 9.3606 51.6959 9.3606C48.9433 9.3606 44.6028 13.1818 40.2518 17.6807C41.0934 16.0253 42.1666 13.9249 42.5364 13.2479C43.1771 12.0751 43.5802 11.2862 43.5802 10.7319C43.584 10.5832 43.5569 10.4353 43.5008 10.2976C43.4447 10.1598 43.3608 10.0352 43.2543 9.93162C43.1478 9.828 43.021 9.74761 42.882 9.69549C42.7429 9.64338 42.5946 9.62068 42.4464 9.62882C41.6976 9.62882 41.1839 10.7531 40.6008 11.8197C40.165 12.617 39.0248 14.7706 38.4767 15.8075C36.0401 17.9983 30.0799 23.1349 27.764 23.1349C25.3451 23.1349 26.6798 20.2084 27.1543 18.9741C28.8535 14.5543 31.7081 11.9233 31.7081 10.6185C31.7031 10.4826 31.6712 10.349 31.6143 10.2256C31.5575 10.1021 31.4767 9.99108 31.3767 9.89906C31.2768 9.80704 31.1596 9.7358 31.032 9.68945C30.9044 9.64311 30.7689 9.62258 30.6333 9.62905C29.396 9.62905 29.0528 11.0472 28.5259 11.0472C27.9991 11.0472 26.9021 9.36086 24.1472 9.36086C18.82 9.36086 12.5859 15.2502 12.5859 21.815C12.5859 24.035 13.7254 25.5351 16.1241 25.5351C19.1897 25.5351 22.4483 22.6233 24.2679 20.5797C23.7513 22.604 23.6499 25.5284 27.378 25.5284C30.3041 25.5284 34.4015 21.7347 36.9786 18.9956C35.9451 20.9934 34.467 23.9218 34.467 24.3302C34.467 24.9581 34.5482 25.5349 35.3323 25.5349C36.1164 25.5349 37.0221 24.9075 38.172 23.1497C39.3219 21.392 48.0859 11.749 51.3875 11.749C54.6891 11.749 48.0956 19.8222 48.0956 22.8666C48.0956 25.0981 49.3358 25.5349 50.7157 25.5349C53.4187 25.5349 56.5772 23.4665 59.3633 20.5417C59.2955 22.2378 59.5423 25.5349 62.4869 25.5349C65.1948 25.5349 67.8121 23.6808 69.4708 22.2002C68.9754 23.2473 68.2886 24.6958 67.5564 26.2311C64.3438 28.1468 61.3351 29.9847 59.5038 31.2068C53.9421 34.9188 51.2892 37.2328 51.2892 40.9419C51.2892 44.2226 53.5633 44.9999 55.5236 44.9999C58.7538 44.9999 61.7755 42.6871 63.7793 38.9442C64.8096 37.0195 67.3747 31.9706 69.8082 27.1757C73.4233 24.8651 77.2898 22.5207 80.4854 20.9193C80.7638 22.3244 81.8178 25.5849 85.6062 25.5849C88.7108 25.5849 92.223 23.2138 94.3356 20.0989C94.9768 20.2103 95.6265 20.2659 96.2773 20.2651C100.059 20.2651 104.862 17.7271 104.862 16.1602C104.862 15.5428 104.525 14.9975 103.765 15.1806ZM24.1998 17.9671C22.7783 19.3202 19.2293 22.646 17.0301 22.646C15.9183 22.646 15.3078 22.1281 15.3078 20.9523C15.3078 17.6843 19.2914 11.9463 24.0092 11.9463C25.8001 11.9463 26.5484 12.9127 26.5484 14.1183C26.5483 15.1905 25.6213 16.6141 24.1998 17.9671ZM63.7784 33.9785C61.2961 38.6488 58.8685 42.5703 56.0437 42.5703C54.1584 42.5703 53.7852 41.6916 53.7852 40.5179C53.7852 38.5626 55.7342 36.4101 58.8641 34.4017C60.0997 33.6089 62.7118 31.8214 65.8783 29.7313C64.9793 31.5942 64.1831 33.2173 63.7784 33.9785ZM71.0323 18.2833C69.603 19.6435 65.8653 22.7081 63.4569 22.7081C62.3391 22.7081 62.058 21.954 62.058 20.772C62.058 17.2243 66.1747 11.9185 70.0448 11.9185C71.5723 11.9185 73.2488 12.6857 73.2488 14.571C73.2488 15.479 72.4614 16.923 71.0323 18.2833ZM93.3397 17.4498C91.4208 16.6155 90.4593 15.0936 90.4593 13.9092C90.4593 12.1878 91.4765 11.6197 92.2365 11.6197C92.9965 11.6197 94.0229 12.4526 94.0229 14.6595C93.9896 15.6269 93.7569 16.5769 93.3397 17.4498Z" fill="#FF7442"/>
</g>
<defs>
<clipPath id="clip0_1548:1971">
<rect width="104.862" height="45" fill="white"/>
</clipPath>
</defs>
</svg>
